<?xml version="1.0" encoding="UTF-8" standalone="no"?>
<!DOCTYPE svg PUBLIC "-//W3C//DTD SVG 1.1//EN"
 "http://www.w3.org/Graphics/SVG/1.1/DTD/svg11.dtd">
<!-- Generated by graphviz version 2.38.0 (20140413.2041)
 -->
<!-- Title: controllers_diagram Pages: 1 -->
<svg width="612pt" height="585pt"
 viewBox="0.00 0.00 612.07 585.00" xmlns="http://www.w3.org/2000/svg" xmlns:xlink="http://www.w3.org/1999/xlink">
<g id="graph0" class="graph" transform="scale(1 1) rotate(0) translate(220.379 365.5)">
<title>controllers_diagram</title>
<polygon fill="none" stroke="none" points="-220.379,219.5 -220.379,-365.5 391.688,-365.5 391.688,219.5 -220.379,219.5"/>
<!-- _diagram_info -->
<g id="node1" class="node"><title>_diagram_info</title>
<text text-anchor="start" x="188.312" y="-239.1" font-family="Times,serif" font-size="13.00">Controllers diagram</text>
<text text-anchor="start" x="188.312" y="-226.1" font-family="Times,serif" font-size="13.00">Date: Mar 19 2016 &#45; 19:43</text>
<text text-anchor="start" x="188.312" y="-213.1" font-family="Times,serif" font-size="13.00">Migration version: 20160318100836</text>
<text text-anchor="start" x="188.312" y="-200.1" font-family="Times,serif" font-size="13.00">Generated by RailRoady 1.4.2</text>
<text text-anchor="start" x="188.312" y="-187.1" font-family="Times,serif" font-size="13.00">http://railroady.prestonlee.com</text>
</g>
<!-- ApplicationController -->
<g id="node2" class="node"><title>ApplicationController</title>
<path fill="none" stroke="black" d="M102.034,215C102.034,215 275.966,215 275.966,215 281.966,215 287.966,209 287.966,203 287.966,203 287.966,137 287.966,137 287.966,131 281.966,125 275.966,125 275.966,125 102.034,125 102.034,125 96.0342,125 90.0342,131 90.0342,137 90.0342,137 90.0342,203 90.0342,203 90.0342,209 96.0342,215 102.034,215"/>
<text text-anchor="middle" x="189" y="140.2" font-family="Times,serif" font-size="14.00">ApplicationController</text>
<polyline fill="none" stroke="black" points="90.0342,147 287.966,147 "/>
<polyline fill="none" stroke="black" points="90.0342,171 287.966,171 "/>
<text text-anchor="start" x="98.0342" y="186.2" font-family="Times,serif" font-size="14.00">configure_permitted_parameters</text>
<polyline fill="none" stroke="black" points="90.0342,193 287.966,193 "/>
<text text-anchor="start" x="98.0342" y="208.2" font-family="Times,serif" font-size="14.00">_layout</text>
</g>
<!-- CommentsController -->
<g id="node3" class="node"><title>CommentsController</title>
<path fill="none" stroke="black" d="M-60.1069,125C-60.1069,125 50.1069,125 50.1069,125 56.1069,125 62.1069,119 62.1069,113 62.1069,113 62.1069,-93 62.1069,-93 62.1069,-99 56.1069,-105 50.1069,-105 50.1069,-105 -60.1069,-105 -60.1069,-105 -66.1069,-105 -72.1069,-99 -72.1069,-93 -72.1069,-93 -72.1069,113 -72.1069,113 -72.1069,119 -66.1069,125 -60.1069,125"/>
<text text-anchor="middle" x="-5" y="-89.8" font-family="Times,serif" font-size="14.00">CommentsController</text>
<polyline fill="none" stroke="black" points="-72.1069,-83 62.1069,-83 "/>
<text text-anchor="start" x="-64.1069" y="-67.8" font-family="Times,serif" font-size="14.00">create</text>
<text text-anchor="start" x="-64.1069" y="-53.8" font-family="Times,serif" font-size="14.00">destroy</text>
<text text-anchor="start" x="-64.1069" y="-39.8" font-family="Times,serif" font-size="14.00">edit</text>
<text text-anchor="start" x="-64.1069" y="-25.8" font-family="Times,serif" font-size="14.00">index</text>
<text text-anchor="start" x="-64.1069" y="-11.8" font-family="Times,serif" font-size="14.00">new</text>
<text text-anchor="start" x="-64.1069" y="2.2" font-family="Times,serif" font-size="14.00">show</text>
<text text-anchor="start" x="-64.1069" y="16.2" font-family="Times,serif" font-size="14.00">update</text>
<polyline fill="none" stroke="black" points="-72.1069,23 62.1069,23 "/>
<polyline fill="none" stroke="black" points="-72.1069,47 62.1069,47 "/>
<text text-anchor="start" x="-64.1069" y="62.2" font-family="Times,serif" font-size="14.00">_layout</text>
<text text-anchor="start" x="-64.1069" y="76.2" font-family="Times,serif" font-size="14.00">comment_params</text>
<text text-anchor="start" x="-64.1069" y="90.2" font-family="Times,serif" font-size="14.00">set_comment</text>
<text text-anchor="start" x="-64.1069" y="104.2" font-family="Times,serif" font-size="14.00">set_note</text>
<text text-anchor="start" x="-64.1069" y="118.2" font-family="Times,serif" font-size="14.00">set_note_image</text>
</g>
<!-- NoteImagesController -->
<g id="node4" class="node"><title>NoteImagesController</title>
<path fill="none" stroke="black" d="M-77.5933,-145C-77.5933,-145 39.5933,-145 39.5933,-145 45.5933,-145 51.5933,-151 51.5933,-157 51.5933,-157 51.5933,-349 51.5933,-349 51.5933,-355 45.5933,-361 39.5933,-361 39.5933,-361 -77.5933,-361 -77.5933,-361 -83.5933,-361 -89.5933,-355 -89.5933,-349 -89.5933,-349 -89.5933,-157 -89.5933,-157 -89.5933,-151 -83.5933,-145 -77.5933,-145"/>
<text text-anchor="middle" x="-19" y="-345.8" font-family="Times,serif" font-size="14.00">NoteImagesController</text>
<polyline fill="none" stroke="black" points="-89.5933,-339 51.5933,-339 "/>
<text text-anchor="start" x="-81.5933" y="-323.8" font-family="Times,serif" font-size="14.00">create</text>
<text text-anchor="start" x="-81.5933" y="-309.8" font-family="Times,serif" font-size="14.00">destroy</text>
<text text-anchor="start" x="-81.5933" y="-295.8" font-family="Times,serif" font-size="14.00">edit</text>
<text text-anchor="start" x="-81.5933" y="-281.8" font-family="Times,serif" font-size="14.00">index</text>
<text text-anchor="start" x="-81.5933" y="-267.8" font-family="Times,serif" font-size="14.00">new</text>
<text text-anchor="start" x="-81.5933" y="-253.8" font-family="Times,serif" font-size="14.00">show</text>
<text text-anchor="start" x="-81.5933" y="-239.8" font-family="Times,serif" font-size="14.00">update</text>
<polyline fill="none" stroke="black" points="-89.5933,-233 51.5933,-233 "/>
<polyline fill="none" stroke="black" points="-89.5933,-209 51.5933,-209 "/>
<text text-anchor="start" x="-81.5933" y="-193.8" font-family="Times,serif" font-size="14.00">_layout</text>
<text text-anchor="start" x="-81.5933" y="-179.8" font-family="Times,serif" font-size="14.00">note_image_params</text>
<text text-anchor="start" x="-81.5933" y="-165.8" font-family="Times,serif" font-size="14.00">set_note</text>
<text text-anchor="start" x="-81.5933" y="-151.8" font-family="Times,serif" font-size="14.00">set_note_image</text>
</g>
<!-- NotesController -->
<g id="node5" class="node"><title>NotesController</title>
<path fill="none" stroke="black" d="M101.631,89C101.631,89 206.369,89 206.369,89 212.369,89 218.369,83 218.369,77 218.369,77 218.369,-129 218.369,-129 218.369,-135 212.369,-141 206.369,-141 206.369,-141 101.631,-141 101.631,-141 95.6309,-141 89.6309,-135 89.6309,-129 89.6309,-129 89.6309,77 89.6309,77 89.6309,83 95.6309,89 101.631,89"/>
<text text-anchor="middle" x="154" y="-125.8" font-family="Times,serif" font-size="14.00">NotesController</text>
<polyline fill="none" stroke="black" points="89.6309,-119 218.369,-119 "/>
<text text-anchor="start" x="97.6309" y="-103.8" font-family="Times,serif" font-size="14.00">create</text>
<text text-anchor="start" x="97.6309" y="-89.8" font-family="Times,serif" font-size="14.00">destroy</text>
<text text-anchor="start" x="97.6309" y="-75.8" font-family="Times,serif" font-size="14.00">edit</text>
<text text-anchor="start" x="97.6309" y="-61.8" font-family="Times,serif" font-size="14.00">index</text>
<text text-anchor="start" x="97.6309" y="-47.8" font-family="Times,serif" font-size="14.00">new</text>
<text text-anchor="start" x="97.6309" y="-33.8" font-family="Times,serif" font-size="14.00">search</text>
<text text-anchor="start" x="97.6309" y="-19.8" font-family="Times,serif" font-size="14.00">show</text>
<text text-anchor="start" x="97.6309" y="-5.8" font-family="Times,serif" font-size="14.00">update</text>
<polyline fill="none" stroke="black" points="89.6309,1 218.369,1 "/>
<polyline fill="none" stroke="black" points="89.6309,25 218.369,25 "/>
<text text-anchor="start" x="97.6309" y="40.2" font-family="Times,serif" font-size="14.00">_layout</text>
<text text-anchor="start" x="97.6309" y="54.2" font-family="Times,serif" font-size="14.00">note_image_params</text>
<text text-anchor="start" x="97.6309" y="68.2" font-family="Times,serif" font-size="14.00">note_params</text>
<text text-anchor="start" x="97.6309" y="82.2" font-family="Times,serif" font-size="14.00">set_note</text>
</g>
<!-- PageController -->
<g id="node6" class="node"><title>PageController</title>
<path fill="none" stroke="black" d="M-204.379,17C-204.379,17 -127.621,17 -127.621,17 -121.621,17 -115.621,11 -115.621,5 -115.621,5 -115.621,-89 -115.621,-89 -115.621,-95 -121.621,-101 -127.621,-101 -127.621,-101 -204.379,-101 -204.379,-101 -210.379,-101 -216.379,-95 -216.379,-89 -216.379,-89 -216.379,5 -216.379,5 -216.379,11 -210.379,17 -204.379,17"/>
<text text-anchor="middle" x="-166" y="-85.8" font-family="Times,serif" font-size="14.00">PageController</text>
<polyline fill="none" stroke="black" points="-216.379,-79 -115.621,-79 "/>
<text text-anchor="start" x="-208.379" y="-63.8" font-family="Times,serif" font-size="14.00">contact</text>
<text text-anchor="start" x="-208.379" y="-49.8" font-family="Times,serif" font-size="14.00">form</text>
<text text-anchor="start" x="-208.379" y="-35.8" font-family="Times,serif" font-size="14.00">index</text>
<polyline fill="none" stroke="black" points="-216.379,-29 -115.621,-29 "/>
<polyline fill="none" stroke="black" points="-216.379,-5 -115.621,-5 "/>
<text text-anchor="start" x="-208.379" y="10.2" font-family="Times,serif" font-size="14.00">_layout</text>
</g>
</g>
</svg>
