<?xml version="1.0" encoding="UTF-8" standalone="no"?>
<!DOCTYPE svg PUBLIC "-//W3C//DTD SVG 1.1//EN"
 "http://www.w3.org/Graphics/SVG/1.1/DTD/svg11.dtd">
<!-- Generated by graphviz version 2.38.0 (20140413.2041)
 -->
<!-- Title: models_diagram Pages: 1 -->
<svg width="354pt" height="297pt"
 viewBox="0.00 0.00 354.08 297.00" xmlns="http://www.w3.org/2000/svg" xmlns:xlink="http://www.w3.org/1999/xlink">
<g id="graph0" class="graph" transform="scale(1 1) rotate(0) translate(4 293)">
<title>models_diagram</title>
<polygon fill="none" stroke="none" points="-4,4 -4,-293 350.081,-293 350.081,4 -4,4"/>
<!-- _diagram_info -->
<g id="node1" class="node"><title>_diagram_info</title>
<text text-anchor="start" x="8" y="-274.6" font-family="Times,serif" font-size="13.00">Models diagram</text>
<text text-anchor="start" x="8" y="-261.6" font-family="Times,serif" font-size="13.00">Date: Mar 19 2016 &#45; 19:43</text>
<text text-anchor="start" x="8" y="-248.6" font-family="Times,serif" font-size="13.00">Migration version: 20160318100836</text>
<text text-anchor="start" x="8" y="-235.6" font-family="Times,serif" font-size="13.00">Generated by RailRoady 1.4.2</text>
<text text-anchor="start" x="8" y="-222.6" font-family="Times,serif" font-size="13.00">http://railroady.prestonlee.com</text>
</g>
<!-- Comment -->
<g id="node2" class="node"><title>Comment</title>
<ellipse fill="none" stroke="black" cx="257.688" cy="-18" rx="44.9768" ry="18"/>
<text text-anchor="middle" x="257.688" y="-13.8" font-family="Times,serif" font-size="14.00">Comment</text>
</g>
<!-- Note -->
<g id="node3" class="node"><title>Note</title>
<ellipse fill="none" stroke="black" cx="285.688" cy="-162" rx="27.0958" ry="18"/>
<text text-anchor="middle" x="285.688" y="-157.8" font-family="Times,serif" font-size="14.00">Note</text>
</g>
<!-- NoteImage -->
<g id="node4" class="node"><title>NoteImage</title>
<ellipse fill="none" stroke="black" cx="296.688" cy="-90" rx="49.286" ry="18"/>
<text text-anchor="middle" x="296.688" y="-85.8" font-family="Times,serif" font-size="14.00">NoteImage</text>
</g>
<!-- Note&#45;&gt;NoteImage -->
<g id="edge1" class="edge"><title>Note&#45;&gt;NoteImage</title>
<path fill="none" stroke="#fcd98f" d="M289.618,-135.987C290.52,-130.249 291.483,-124.121 292.399,-118.293"/>
<ellipse fill="none" stroke="#fcd98f" cx="288.972" cy="-140.103" rx="4.00001" ry="4.00001"/>
<polygon fill="#fcd98f" stroke="#fcd98f" points="292.421,-118.154 298.419,-108.974 293.197,-113.215 293.973,-108.275 293.973,-108.275 293.973,-108.275 293.197,-113.215 289.528,-107.577 292.421,-118.154 292.421,-118.154"/>
</g>
<!-- NoteImage&#45;&gt;Comment -->
<g id="edge2" class="edge"><title>NoteImage&#45;&gt;Comment</title>
<path fill="none" stroke="#bf0ea5" d="M283.315,-64.9976C279.716,-58.5373 275.806,-51.5206 272.151,-44.959"/>
<ellipse fill="none" stroke="#bf0ea5" cx="285.3" cy="-68.5607" rx="4.00002" ry="4.00002"/>
<polygon fill="#bf0ea5" stroke="#bf0ea5" points="271.909,-44.5247 270.973,-33.5988 269.475,-40.1568 267.042,-35.789 267.042,-35.789 267.042,-35.789 269.475,-40.1568 263.111,-37.9792 271.909,-44.5247 271.909,-44.5247"/>
</g>
<!-- User -->
<g id="node5" class="node"><title>User</title>
<ellipse fill="none" stroke="black" cx="252.688" cy="-252.5" rx="27" ry="18"/>
<text text-anchor="middle" x="252.688" y="-248.3" font-family="Times,serif" font-size="14.00">User</text>
</g>
<!-- User&#45;&gt;Comment -->
<g id="edge4" class="edge"><title>User&#45;&gt;Comment</title>
<path fill="none" stroke="#771fdc" d="M246.804,-226.341C239.532,-191.451 229.213,-126.509 238.688,-72 240.252,-63.0016 243.205,-53.5113 246.326,-45.087"/>
<ellipse fill="none" stroke="#771fdc" cx="247.729" cy="-230.63" rx="4.00001" ry="4.00001"/>
<polygon fill="#771fdc" stroke="#771fdc" points="246.327,-45.0845 254.179,-37.4299 248.159,-40.4325 249.992,-35.7805 249.992,-35.7805 249.992,-35.7805 248.159,-40.4325 245.805,-34.1311 246.327,-45.0845 246.327,-45.0845"/>
</g>
<!-- User&#45;&gt;Note -->
<g id="edge3" class="edge"><title>User&#45;&gt;Note</title>
<path fill="none" stroke="#3979c9" d="M261.696,-227.341C266.113,-215.496 271.439,-201.214 275.949,-189.117"/>
<ellipse fill="none" stroke="#3979c9" cx="260.292" cy="-231.106" rx="4.00001" ry="4.00001"/>
<polygon fill="#3979c9" stroke="#3979c9" points="276.015,-188.941 283.725,-181.144 277.762,-184.256 279.509,-179.572 279.509,-179.572 279.509,-179.572 277.762,-184.256 275.292,-177.999 276.015,-188.941 276.015,-188.941"/>
</g>
</g>
</svg>
