<?xml version="1.0" encoding="UTF-8" standalone="no"?>
<!DOCTYPE svg PUBLIC "-//W3C//DTD SVG 1.1//EN"
 "http://www.w3.org/Graphics/SVG/1.1/DTD/svg11.dtd">
<!-- Generated by graphviz version 2.38.0 (20140413.2041)
 -->
<!-- Title: models_diagram Pages: 1 -->
<svg width="623pt" height="926pt"
 viewBox="0.00 0.00 623.15 926.00" xmlns="http://www.w3.org/2000/svg" xmlns:xlink="http://www.w3.org/1999/xlink">
<g id="graph0" class="graph" transform="scale(1 1) rotate(0) translate(4 922)">
<title>models_diagram</title>
<polygon fill="none" stroke="none" points="-4,4 -4,-922 619.154,-922 619.154,4 -4,4"/>
<!-- _diagram_info -->
<g id="node1" class="node"><title>_diagram_info</title>
<text text-anchor="start" x="8" y="-826.6" font-family="Times,serif" font-size="13.00">Models diagram</text>
<text text-anchor="start" x="8" y="-813.6" font-family="Times,serif" font-size="13.00">Date: Mar 19 2016 &#45; 19:43</text>
<text text-anchor="start" x="8" y="-800.6" font-family="Times,serif" font-size="13.00">Migration version: 20160318100836</text>
<text text-anchor="start" x="8" y="-787.6" font-family="Times,serif" font-size="13.00">Generated by RailRoady 1.4.2</text>
<text text-anchor="start" x="8" y="-774.6" font-family="Times,serif" font-size="13.00">http://railroady.prestonlee.com</text>
</g>
<!-- Comment -->
<g id="node2" class="node"><title>Comment</title>
<path fill="none" stroke="black" d="M272.825,-0.5C272.825,-0.5 496.55,-0.5 496.55,-0.5 502.55,-0.5 508.55,-6.5 508.55,-12.5 508.55,-12.5 508.55,-144.5 508.55,-144.5 508.55,-150.5 502.55,-156.5 496.55,-156.5 496.55,-156.5 272.825,-156.5 272.825,-156.5 266.825,-156.5 260.825,-150.5 260.825,-144.5 260.825,-144.5 260.825,-12.5 260.825,-12.5 260.825,-6.5 266.825,-0.5 272.825,-0.5"/>
<text text-anchor="middle" x="384.688" y="-141.3" font-family="Times,serif" font-size="14.00">Comment</text>
<polyline fill="none" stroke="black" points="260.825,-134.5 508.55,-134.5 "/>
<text text-anchor="start" x="268.825" y="-119.3" font-family="Times,serif" font-size="14.00">id :integer</text>
<text text-anchor="start" x="268.825" y="-105.3" font-family="Times,serif" font-size="14.00">content :text</text>
<text text-anchor="start" x="268.825" y="-91.3" font-family="Times,serif" font-size="14.00">x :integer</text>
<text text-anchor="start" x="268.825" y="-77.3" font-family="Times,serif" font-size="14.00">y :integer</text>
<text text-anchor="start" x="268.825" y="-63.3" font-family="Times,serif" font-size="14.00">user_id :integer</text>
<text text-anchor="start" x="268.825" y="-49.3" font-family="Times,serif" font-size="14.00">noteimage_id :integer</text>
<text text-anchor="start" x="268.825" y="-35.3" font-family="Times,serif" font-size="14.00">created_at :timestamp without time zone</text>
<text text-anchor="start" x="268.825" y="-21.3" font-family="Times,serif" font-size="14.00">updated_at :timestamp without time zone</text>
<text text-anchor="start" x="268.825" y="-7.3" font-family="Times,serif" font-size="14.00">rating :integer</text>
</g>
<!-- Note -->
<g id="node3" class="node"><title>Note</title>
<path fill="none" stroke="black" d="M338.222,-428.5C338.222,-428.5 603.154,-428.5 603.154,-428.5 609.154,-428.5 615.154,-434.5 615.154,-440.5 615.154,-440.5 615.154,-642.5 615.154,-642.5 615.154,-648.5 609.154,-654.5 603.154,-654.5 603.154,-654.5 338.222,-654.5 338.222,-654.5 332.222,-654.5 326.222,-648.5 326.222,-642.5 326.222,-642.5 326.222,-440.5 326.222,-440.5 326.222,-434.5 332.222,-428.5 338.222,-428.5"/>
<text text-anchor="middle" x="470.688" y="-639.3" font-family="Times,serif" font-size="14.00">Note</text>
<polyline fill="none" stroke="black" points="326.222,-632.5 615.154,-632.5 "/>
<text text-anchor="start" x="334.222" y="-617.3" font-family="Times,serif" font-size="14.00">id :integer</text>
<text text-anchor="start" x="334.222" y="-603.3" font-family="Times,serif" font-size="14.00">title :character varying</text>
<text text-anchor="start" x="334.222" y="-589.3" font-family="Times,serif" font-size="14.00">description :text</text>
<text text-anchor="start" x="334.222" y="-575.3" font-family="Times,serif" font-size="14.00">subject :character varying</text>
<text text-anchor="start" x="334.222" y="-561.3" font-family="Times,serif" font-size="14.00">teacher :text</text>
<text text-anchor="start" x="334.222" y="-547.3" font-family="Times,serif" font-size="14.00">rating :integer</text>
<text text-anchor="start" x="334.222" y="-533.3" font-family="Times,serif" font-size="14.00">user_id :integer</text>
<text text-anchor="start" x="334.222" y="-519.3" font-family="Times,serif" font-size="14.00">create_note :date</text>
<text text-anchor="start" x="334.222" y="-505.3" font-family="Times,serif" font-size="14.00">created_at :timestamp without time zone</text>
<text text-anchor="start" x="334.222" y="-491.3" font-family="Times,serif" font-size="14.00">updated_at :timestamp without time zone</text>
<text text-anchor="start" x="334.222" y="-477.3" font-family="Times,serif" font-size="14.00">image_file_name :character varying</text>
<text text-anchor="start" x="334.222" y="-463.3" font-family="Times,serif" font-size="14.00">image_content_type :character varying</text>
<text text-anchor="start" x="334.222" y="-449.3" font-family="Times,serif" font-size="14.00">image_file_size :integer</text>
<text text-anchor="start" x="334.222" y="-435.3" font-family="Times,serif" font-size="14.00">image_updated_at :timestamp without time zone</text>
</g>
<!-- NoteImage -->
<g id="node4" class="node"><title>NoteImage</title>
<path fill="none" stroke="black" d="M338.222,-193.5C338.222,-193.5 603.154,-193.5 603.154,-193.5 609.154,-193.5 615.154,-199.5 615.154,-205.5 615.154,-205.5 615.154,-379.5 615.154,-379.5 615.154,-385.5 609.154,-391.5 603.154,-391.5 603.154,-391.5 338.222,-391.5 338.222,-391.5 332.222,-391.5 326.222,-385.5 326.222,-379.5 326.222,-379.5 326.222,-205.5 326.222,-205.5 326.222,-199.5 332.222,-193.5 338.222,-193.5"/>
<text text-anchor="middle" x="470.688" y="-376.3" font-family="Times,serif" font-size="14.00">NoteImage</text>
<polyline fill="none" stroke="black" points="326.222,-369.5 615.154,-369.5 "/>
<text text-anchor="start" x="334.222" y="-354.3" font-family="Times,serif" font-size="14.00">id :integer</text>
<text text-anchor="start" x="334.222" y="-340.3" font-family="Times,serif" font-size="14.00">image_id :integer</text>
<text text-anchor="start" x="334.222" y="-326.3" font-family="Times,serif" font-size="14.00">x :integer</text>
<text text-anchor="start" x="334.222" y="-312.3" font-family="Times,serif" font-size="14.00">y :integer</text>
<text text-anchor="start" x="334.222" y="-298.3" font-family="Times,serif" font-size="14.00">content :text</text>
<text text-anchor="start" x="334.222" y="-284.3" font-family="Times,serif" font-size="14.00">note_id :integer</text>
<text text-anchor="start" x="334.222" y="-270.3" font-family="Times,serif" font-size="14.00">created_at :timestamp without time zone</text>
<text text-anchor="start" x="334.222" y="-256.3" font-family="Times,serif" font-size="14.00">updated_at :timestamp without time zone</text>
<text text-anchor="start" x="334.222" y="-242.3" font-family="Times,serif" font-size="14.00">image_file_name :character varying</text>
<text text-anchor="start" x="334.222" y="-228.3" font-family="Times,serif" font-size="14.00">image_content_type :character varying</text>
<text text-anchor="start" x="334.222" y="-214.3" font-family="Times,serif" font-size="14.00">image_file_size :integer</text>
<text text-anchor="start" x="334.222" y="-200.3" font-family="Times,serif" font-size="14.00">image_updated_at :timestamp without time zone</text>
</g>
<!-- Note&#45;&gt;NoteImage -->
<g id="edge1" class="edge"><title>Note&#45;&gt;NoteImage</title>
<path fill="none" stroke="#6f737b" d="M470.688,-420.158C470.688,-414.014 470.688,-407.86 470.688,-401.756"/>
<ellipse fill="none" stroke="#6f737b" cx="470.688" cy="-424.203" rx="4" ry="4"/>
<polygon fill="#6f737b" stroke="#6f737b" points="470.688,-401.542 475.188,-391.542 470.688,-396.542 470.688,-391.542 470.688,-391.542 470.688,-391.542 470.688,-396.542 466.188,-391.542 470.688,-401.542 470.688,-401.542"/>
</g>
<!-- NoteImage&#45;&gt;Comment -->
<g id="edge2" class="edge"><title>NoteImage&#45;&gt;Comment</title>
<path fill="none" stroke="#e8929b" d="M427.804,-185.788C425.14,-179.219 422.475,-172.649 419.85,-166.179"/>
<ellipse fill="none" stroke="#e8929b" cx="429.331" cy="-189.551" rx="4.00002" ry="4.00002"/>
<polygon fill="#e8929b" stroke="#e8929b" points="419.797,-166.048 420.208,-155.09 417.917,-161.415 416.038,-156.781 416.038,-156.781 416.038,-156.781 417.917,-161.415 411.868,-158.473 419.797,-166.048 419.797,-166.048"/>
</g>
<!-- User -->
<g id="node5" class="node"><title>User</title>
<path fill="none" stroke="black" d="M237.053,-691.5C237.053,-691.5 532.323,-691.5 532.323,-691.5 538.323,-691.5 544.323,-697.5 544.323,-703.5 544.323,-703.5 544.323,-905.5 544.323,-905.5 544.323,-911.5 538.323,-917.5 532.323,-917.5 532.323,-917.5 237.053,-917.5 237.053,-917.5 231.053,-917.5 225.053,-911.5 225.053,-905.5 225.053,-905.5 225.053,-703.5 225.053,-703.5 225.053,-697.5 231.053,-691.5 237.053,-691.5"/>
<text text-anchor="middle" x="384.688" y="-902.3" font-family="Times,serif" font-size="14.00">User</text>
<polyline fill="none" stroke="black" points="225.053,-895.5 544.323,-895.5 "/>
<text text-anchor="start" x="233.053" y="-880.3" font-family="Times,serif" font-size="14.00">id :integer</text>
<text text-anchor="start" x="233.053" y="-866.3" font-family="Times,serif" font-size="14.00">email :character varying</text>
<text text-anchor="start" x="233.053" y="-852.3" font-family="Times,serif" font-size="14.00">encrypted_password :character varying</text>
<text text-anchor="start" x="233.053" y="-838.3" font-family="Times,serif" font-size="14.00">reset_password_token :character varying</text>
<text text-anchor="start" x="233.053" y="-824.3" font-family="Times,serif" font-size="14.00">reset_password_sent_at :timestamp without time zone</text>
<text text-anchor="start" x="233.053" y="-810.3" font-family="Times,serif" font-size="14.00">remember_created_at :timestamp without time zone</text>
<text text-anchor="start" x="233.053" y="-796.3" font-family="Times,serif" font-size="14.00">sign_in_count :integer</text>
<text text-anchor="start" x="233.053" y="-782.3" font-family="Times,serif" font-size="14.00">current_sign_in_at :timestamp without time zone</text>
<text text-anchor="start" x="233.053" y="-768.3" font-family="Times,serif" font-size="14.00">last_sign_in_at :timestamp without time zone</text>
<text text-anchor="start" x="233.053" y="-754.3" font-family="Times,serif" font-size="14.00">current_sign_in_ip :character varying</text>
<text text-anchor="start" x="233.053" y="-740.3" font-family="Times,serif" font-size="14.00">last_sign_in_ip :character varying</text>
<text text-anchor="start" x="233.053" y="-726.3" font-family="Times,serif" font-size="14.00">created_at :timestamp without time zone</text>
<text text-anchor="start" x="233.053" y="-712.3" font-family="Times,serif" font-size="14.00">updated_at :timestamp without time zone</text>
<text text-anchor="start" x="233.053" y="-698.3" font-family="Times,serif" font-size="14.00">username :character varying</text>
</g>
<!-- User&#45;&gt;Comment -->
<g id="edge4" class="edge"><title>User&#45;&gt;Comment</title>
<path fill="none" stroke="#814f6c" d="M325.571,-683.643C322.429,-674.107 319.73,-664.491 317.688,-655 274.499,-454.26 263.586,-391.078 317.688,-193 320.171,-183.908 323.59,-174.803 327.579,-165.925"/>
<ellipse fill="none" stroke="#814f6c" cx="326.887" cy="-687.485" rx="4.00001" ry="4.00001"/>
<polygon fill="#814f6c" stroke="#814f6c" points="327.639,-165.799 335.992,-158.695 329.783,-161.282 331.927,-156.765 331.927,-156.765 331.927,-156.765 329.783,-161.282 327.862,-154.835 327.639,-165.799 327.639,-165.799"/>
</g>
<!-- User&#45;&gt;Note -->
<g id="edge3" class="edge"><title>User&#45;&gt;Note</title>
<path fill="none" stroke="#345978" d="M424.202,-683.579C426.289,-677.246 428.387,-670.879 430.476,-664.539"/>
<ellipse fill="none" stroke="#345978" cx="422.91" cy="-687.499" rx="4.00001" ry="4.00001"/>
<polygon fill="#345978" stroke="#345978" points="430.619,-664.105 438.022,-656.016 432.183,-659.356 433.748,-654.607 433.748,-654.607 433.748,-654.607 432.183,-659.356 429.474,-653.199 430.619,-664.105 430.619,-664.105"/>
</g>
</g>
</svg>
